<?xml version="1.0" encoding="utf-8"?>
<!-- Generator: Adobe Illustrator 21.1.0, SVG Export Plug-In . SVG Version: 6.00 Build 0)  -->
<svg version="1.1" id="Calque_1" xmlns="http://www.w3.org/2000/svg" xmlns:xlink="http://www.w3.org/1999/xlink" x="0px" y="0px"
	 viewBox="0 0 55.6 33.4" style="enable-background:new 0 0 55.6 33.4;" xml:space="preserve">
<style type="text/css">
	.st0{fill:#000000;}
</style>
<path class="st0" d="M0.7,18.7c-0.6,3-1.3,11.3,0,13.1c1.4,1.8,10,1.6,9,0.1C3.6,22.8,3,15.8,1.9,16.5C0.9,17.2,0.7,18.7,0.7,18.7"
	/>
<path class="st0" d="M28.5,30.3c-1.8,2.4,1.5,3.1,5.1,3c5.3-0.2,6-2.3,6.1-3.6c0.2-2.5-0.2-17.5-2.2-17.6
	C34.7,11.9,33,24.1,28.5,30.3"/>
<path class="st0" d="M16.3,14.5c-1.4-1.2-6.1-6.3-6.1-6.3C9,7.3,0.8,8.2,0.4,8.6c0,0,11.8,20.8,17.4,20.9c7.8,0.2,3.5-7.5,21.5-26.4
	c2.8-3,0.8-3.2-0.4-2.9c-1,0.3-4.1,0.9-7.8,1.6C30.2,2,26.2,6.7,17.2,14.5C17.2,14.5,16.8,14.9,16.3,14.5"/>
<polygon class="st0" points="55.6,31.3 55.6,33.4 49,33.4 49,31.5 51.2,29.6 49,27.8 49,25.8 55.6,25.8 55.6,28 52.1,28 53.9,29.6 
	52.1,31.3 "/>
<rect x="49" y="22" transform="matrix(1 -1.680815e-03 1.680815e-03 1 -3.890541e-02 8.796630e-02)" class="st0" width="6.6" height="2.3"/>
<polygon class="st0" points="55.6,16.3 55.6,20.5 49,20.5 49,18.2 54,18.2 54,16.3 "/>
<polygon class="st0" points="55.6,11.4 55.6,15.6 49,15.6 49,13.3 54,13.3 54,11.4 "/>
<polygon class="st0" points="55.6,6.1 55.6,10.7 49,10.7 49,6.3 50.5,6.3 50.5,8.5 51.6,8.5 51.6,6.6 53,6.6 53,8.5 54.1,8.5 
	54.1,6.1 "/>
<polygon class="st0" points="55.6,1.7 55.6,4 50.5,4 50.5,5.6 49,5.6 49,0.2 50.5,0.2 50.5,1.7 "/>
<polygon class="st0" points="44.9,0 46.3,0 46.3,33.4 44.9,33.4 "/>
</svg>
